<?xml version="1.0" standalone="no"?>
<!DOCTYPE svg PUBLIC "-//W3C//DTD SVG 20010904//EN"
 "http://www.w3.org/TR/2001/REC-SVG-20010904/DTD/svg10.dtd">
<svg version="1.0" xmlns="http://www.w3.org/2000/svg"
 width="369.000000pt" height="250.000000pt" viewBox="0 0 369.000000 250.000000"
 preserveAspectRatio="xMidYMid meet">

<g transform="translate(0.000000,250.000000) scale(0.100000,-0.100000)"
fill="#000000" stroke="none">
<path d="M1230 1195 l0 -365 80 0 80 0 0 365 0 365 -80 0 -80 0 0 -365z"/>
<path d="M1470 1275 l0 -285 80 0 80 0 0 285 0 285 -80 0 -80 0 0 -285z"/>
<path d="M1710 1195 l0 -365 85 0 85 0 0 365 0 365 -85 0 -85 0 0 -365z"/>
<path d="M1960 1480 l0 -80 80 0 80 0 0 80 0 80 -80 0 -80 0 0 -80z"/>
<path d="M2200 1480 l0 -80 205 0 205 0 0 80 0 80 -205 0 -205 0 0 -80z"/>
<path d="M1960 1075 l0 -245 80 0 80 0 0 245 0 245 -80 0 -80 0 0 -245z"/>
<path d="M2200 1075 l0 -245 80 0 80 0 0 245 0 245 -80 0 -80 0 0 -245z"/>
</g>
</svg>
